<svg xmlns="http://www.w3.org/2000/svg" viewBox="0 0 512 512" width="100%" height="100%">
  <defs>
    <linearGradient id="bgGrad" x1="0%" y1="0%" x2="100%" y2="100%">
      <stop offset="0%" stop-color="#0b0f19" />
      <stop offset="50%" stop-color="#0f172a" />
      <stop offset="100%" stop-color="#1e293b" />
    </linearGradient>
    <linearGradient id="blueGrad" x1="0%" y1="0%" x2="100%" y2="100%">
      <stop offset="0%" stop-color="#38bdf8" />
      <stop offset="50%" stop-color="#2563eb" />
      <stop offset="100%" stop-color="#1d4ed8" />
    </linearGradient>
    <linearGradient id="cyanGlow" x1="0%" y1="0%" x2="100%" y2="100%">
      <stop offset="0%" stop-color="#67e8f9" />
      <stop offset="100%" stop-color="#0284c7" />
    </linearGradient>
    <linearGradient id="orangeGrad" x1="0%" y1="0%" x2="100%" y2="100%">
      <stop offset="0%" stop-color="#fb923c" />
      <stop offset="100%" stop-color="#ea580c" />
    </linearGradient>
    <filter id="glow" x="-20%" y="-20%" width="140%" height="140%">
      <feGaussianBlur stdDeviation="8" result="blur" />
      <feComposite in="SourceGraphic" in2="blur" operator="over" />
    </filter>
  </defs>
  <rect width="512" height="512" rx="112" fill="url(#bgGrad)" />
  <rect x="8" y="8" width="496" height="496" rx="104" fill="none" stroke="url(#cyanGlow)" stroke-width="4" stroke-opacity="0.35" />
  <circle cx="256" cy="230" r="168" fill="#1e293b" stroke="url(#blueGrad)" stroke-width="14" filter="url(#glow)" />
  <circle cx="256" cy="230" r="148" fill="#0f172a" stroke="#334155" stroke-width="3" />
  <g stroke="#475569" stroke-width="5" stroke-linecap="round">
    <line x1="256" y1="94"  x2="256" y2="114" />
    <line x1="392" y1="230" x2="372" y2="230" />
    <line x1="256" y1="366" x2="256" y2="346" />
    <line x1="120" y1="230" x2="140" y2="230" />
    <line x1="324" y1="107" x2="315" y2="124" stroke-width="3" stroke="#2d3f55"/>
    <line x1="375" y1="159" x2="358" y2="168" stroke-width="3" stroke="#2d3f55"/>
    <line x1="375" y1="301" x2="358" y2="292" stroke-width="3" stroke="#2d3f55"/>
    <line x1="324" y1="353" x2="315" y2="336" stroke-width="3" stroke="#2d3f55"/>
    <line x1="188" y1="353" x2="197" y2="336" stroke-width="3" stroke="#2d3f55"/>
    <line x1="137" y1="301" x2="154" y2="292" stroke-width="3" stroke="#2d3f55"/>
    <line x1="137" y1="159" x2="154" y2="168" stroke-width="3" stroke="#2d3f55"/>
    <line x1="188" y1="107" x2="197" y2="124" stroke-width="3" stroke="#2d3f55"/>
  </g>
  <line x1="256" y1="230" x2="196" y2="155" stroke="#60a5fa" stroke-width="10" stroke-linecap="round" />
  <line x1="256" y1="230" x2="256" y2="118" stroke="#38bdf8" stroke-width="7" stroke-linecap="round" />
  <line x1="256" y1="230" x2="318" y2="302" stroke="url(#orangeGrad)" stroke-width="4" stroke-linecap="round" />
  <circle cx="256" cy="230" r="12" fill="url(#blueGrad)" />
  <circle cx="256" cy="230" r="5" fill="#ffffff" />
  <rect x="196" y="268" width="120" height="46" rx="23" fill="url(#blueGrad)" />
  <text x="256" y="300" font-family="Arial, sans-serif" font-weight="900" font-size="30" fill="#ffffff" text-anchor="middle" letter-spacing="4">OT</text>
  <rect x="110" y="418" width="292" height="46" rx="23" fill="url(#blueGrad)" />
  <text x="256" y="448" font-family="Arial, sans-serif" font-weight="800" font-size="17" fill="#ffffff" text-anchor="middle" letter-spacing="2">DOUBLE A PORT</text>
</svg>
